<svg width="94" height="37" viewBox="0 0 94 37" fill="none" xmlns="http://www.w3.org/2000/svg" role="img" aria-labelledby="title">
  <title id="title">FDP</title>
  <g clip-path="url(#clip0)">
    <path d="M26.987 0V7.6452H9.5427V15.1365H24.624V22.5253H9.5427V36.6323H0V0H26.987Z" fill="#032D67"/>
    <path d="M41.9421 28.4229C48.9206 28.4229 52.254 25.8075 52.254 18.1623C52.254 11.2351 48.459 8.20932 42.3523 8.20932H37.6343V28.4229H41.9421ZM43.8909 0C54.8695 0 61.7967 6.67081 61.7967 18.1623C61.7967 29.6538 54.8695 36.6323 44.096 36.6323H28.0876V0H43.8909Z" fill="#032D67"/>
    <path d="M78.8781 17.034C81.9039 17.034 83.8526 15.6494 83.8526 12.4698C83.8526 9.29023 81.8526 7.64914 78.8781 7.64914H72.3099V17.038H78.8781V17.034ZM80.2628 0C88.0106 0 93.3953 3.94884 93.3953 11.8505C93.3953 20.1623 89.0875 24.4189 80.1602 24.4189H72.3099V36.6283H62.7672V0H80.2628Z" fill="#032D67"/>
  </g>
  <defs>
    <clipPath id="clip0"><rect width="93.3953" height="36.6323" fill="white"/></clipPath>
  </defs>
</svg>
